<svg id="Layer_1" data-name="Layer 1" xmlns="http://www.w3.org/2000/svg" xmlns:xlink="http://www.w3.org/1999/xlink" viewBox="0 0 111 41"><defs><style>.cls-1{stroke-miterlimit:10;fill:url(#New_Gradient_Swatch_2);stroke:url(#New_Gradient_Swatch_2-2);}.cls-2{fill:#fff;}</style><linearGradient id="New_Gradient_Swatch_2" x1="-316.1" y1="671.35" x2="-315.1" y2="671.35" gradientTransform="matrix(110, 0, 0, -40, 34771, 26874.07)" gradientUnits="userSpaceOnUse"><stop offset="0" stop-color="#40d172"/><stop offset="1" stop-color="#039b77"/></linearGradient><linearGradient id="New_Gradient_Swatch_2-2" x1="-0.5" y1="20" x2="110.5" y2="20" gradientTransform="matrix(1, 0, 0, 1, 0, 0)" xlink:href="#New_Gradient_Swatch_2"/></defs><title>packix_button</title><path class="cls-1" d="M8.76,0H6.91A11.47,11.47,0,0,0,5.07.19,6.11,6.11,0,0,0,3.32.82,5.58,5.58,0,0,0,1.84,2,6.23,6.23,0,0,0,.75,3.62a7,7,0,0,0-.57,1.9,14.85,14.85,0,0,0-.17,2c0,.31,0,.62,0,.92V31.56c0,.31,0,.61,0,.92a14.85,14.85,0,0,0,.17,2,7.13,7.13,0,0,0,.57,1.91A6.35,6.35,0,0,0,1.84,38a5.58,5.58,0,0,0,1.48,1.18,5.83,5.83,0,0,0,1.75.63A11.47,11.47,0,0,0,6.91,40h96.17a11.25,11.25,0,0,0,1.84-.18,6.07,6.07,0,0,0,1.76-.63A5.58,5.58,0,0,0,108.16,38a6.35,6.35,0,0,0,1.09-1.61,7.13,7.13,0,0,0,.57-1.91,14.85,14.85,0,0,0,.17-2v-.92c0-.36,0-.73,0-1.1V9.54c0-.37,0-.73,0-1.1V7.52a14.85,14.85,0,0,0-.17-2,7,7,0,0,0-.57-1.9,6.3,6.3,0,0,0-2.57-2.8,6.07,6.07,0,0,0-1.76-.63A11.25,11.25,0,0,0,103.08,0H8.76Z" transform="translate(0.5 0.5)"/><path class="cls-2" d="M15.87,12.84a2.38,2.38,0,0,1-2.58,2.5c-1.69,0-2.76-1.2-2.76-3.13s1.08-3.13,2.75-3.13a2.39,2.39,0,0,1,2.55,2H14.9A1.56,1.56,0,0,0,13.28,10c-1.1,0-1.8.87-1.8,2.25s.7,2.28,1.82,2.28A1.51,1.51,0,0,0,15,13v-.13H13.42v-.78h2.45ZM19,11.36a1.16,1.16,0,0,0-1.16,1.17h2.27A1.09,1.09,0,0,0,19,11.36ZM20.12,14H21a1.85,1.85,0,0,1-2,1.31A2,2,0,0,1,16.94,13,2.09,2.09,0,0,1,19,10.6c1.25,0,2,.86,2,2.28v.31H17.85v.05a1.19,1.19,0,0,0,1.2,1.29A1.09,1.09,0,0,0,20.12,14Zm2.41-4.41h.89v1.14h1v.75h-1v2.32c0,.47.2.68.64.68l.34,0v.74a3.45,3.45,0,0,1-.48,0c-1,0-1.39-.34-1.39-1.21V11.46h-.71v-.75h.71V9.57ZM28,15.2V10.69h.89V15.2Zm.45-5.3a.55.55,0,1,1,0-1.09.55.55,0,1,1,0,1.09Zm2.18-.33h.89v1.14h1v.75h-1v2.32c0,.47.2.68.64.68l.34,0v.74a3.45,3.45,0,0,1-.48,0c-1,0-1.39-.34-1.39-1.21V11.46h-.71v-.75h.71ZM38,15.29a2.07,2.07,0,0,1-2.13-2.35,2.14,2.14,0,1,1,4.26,0A2.07,2.07,0,0,1,38,15.29Zm0-.79c.77,0,1.21-.58,1.21-1.56S38.8,11.39,38,11.39s-1.21.58-1.21,1.55S37.26,14.5,38,14.5Zm3.31.7V10.69h.86v.72h.07a1.35,1.35,0,0,1,1.34-.81,1.47,1.47,0,0,1,1.56,1.68V15.2h-.89V12.5c0-.72-.31-1.08-1-1.08a1,1,0,0,0-1.08,1.14V15.2Z" transform="translate(0.5 0.5)"/><path class="cls-2" d="M91,26.79c0,1.37,0,2.73,0,4.09s-.61,1.68-1.81,1.29a7.22,7.22,0,0,1-1.47-.67c-2.26-1.3-4.49-2.65-6.75-3.95a3.17,3.17,0,0,1-1.75-3.11c.06-2.32,0-4.64,0-7a2.68,2.68,0,0,1,1.37-2.42c2.47-1.49,5-3,7.47-4.41a3,3,0,0,1,3.22,0c2.43,1.41,4.83,2.85,7.24,4.26a3.07,3.07,0,0,1,1.65,3c-.06,2.36,0,4.72,0,7.08a2.49,2.49,0,0,1-1.21,2.23c-1.39.92-2.85,1.75-4.3,2.6-.56.34-.79.16-.86-.48a1.85,1.85,0,0,1,1.14-2.13c.86-.39,1.62-1,2.44-1.46a1.63,1.63,0,0,0,.84-1.58c0-1.84,0-3.68-.06-5.52,0-.26-.11-.65-.28-.74A1,1,0,0,0,97,18c-1.7,1-3.38,2-5.07,3a1.81,1.81,0,0,0-1,1.71c0,1.34,0,2.67,0,4Z" transform="translate(0.5 0.5)"/><path class="cls-2" d="M15.24,18.31a4,4,0,0,1,4.17,4.17,4,4,0,0,1-4.24,4.18H12.45V31h-2V18.31ZM12.45,25h2.26a2.38,2.38,0,0,0,2.69-2.52A2.37,2.37,0,0,0,14.72,20H12.45Z" transform="translate(0.5 0.5)"/><path class="cls-2" d="M19.81,28.37c0-1.62,1.24-2.61,3.43-2.74l2.53-.15v-.71c0-1-.69-1.64-1.85-1.64a1.77,1.77,0,0,0-2,1.35H20.18c.1-1.67,1.53-2.9,3.81-2.9s3.67,1.19,3.67,3V31H25.84V29.47h0a3.3,3.3,0,0,1-2.92,1.68A2.79,2.79,0,0,1,19.81,28.37Zm6-.84V26.8l-2.27.14c-1.14.08-1.78.58-1.78,1.37s.67,1.34,1.69,1.34A2.21,2.21,0,0,0,25.77,27.53Z" transform="translate(0.5 0.5)"/><path class="cls-2" d="M35.63,24.93a2.11,2.11,0,0,0-2.17-1.77C32,23.16,31,24.39,31,26.37s1,3.21,2.45,3.21a2,2,0,0,0,2.16-1.71h1.83a3.73,3.73,0,0,1-4,3.3c-2.65,0-4.37-1.81-4.37-4.8s1.72-4.79,4.35-4.79a3.74,3.74,0,0,1,4,3.35Z" transform="translate(0.5 0.5)"/><path class="cls-2" d="M44.52,21.75h2.23l-3.83,4,4,5.27H44.7l-3.14-4.11-.79.78V31h-1.9V18.31h1.9v7.4h0Z" transform="translate(0.5 0.5)"/><path class="cls-2" d="M47.79,19.17a1.1,1.1,0,1,1,1.1,1.08A1.09,1.09,0,0,1,47.79,19.17Zm.15,2.58h1.9V31h-1.9Z" transform="translate(0.5 0.5)"/><path class="cls-2" d="M55.2,27.59,53.15,31h-2l3-4.62-3-4.63h2.13l2,3.35h0l2-3.35h2.09l-3,4.57,3,4.68h-2.1l-2-3.41Z" transform="translate(0.5 0.5)"/></svg>